<svg width="1170" height="400" viewBox="0 0 1170 400" version="1.1" xmlns="http://www.w3.org/2000/svg" xmlns:xlink="http://www.w3.org/1999/xlink">
<title>quaive</title>
<desc>Created using Figma</desc>
<g id="Canvas" transform="translate(1822 213)">
<g id="quaive">
<g id="Vector">
<use xlink:href="#path0_fill" transform="translate(-1822 -213)" fill="#004666"/>
</g>
<g id="Vector">
<use xlink:href="#path1_fill" transform="translate(-1473.22 -138.691)" fill="#FFFFFF"/>
<use xlink:href="#path2_fill" transform="translate(-1473.22 -138.691)" fill="#FFFFFF"/>
<use xlink:href="#path3_fill" transform="translate(-1473.22 -138.691)" fill="#FFFFFF"/>
<use xlink:href="#path4_fill" transform="translate(-1473.22 -138.691)" fill="#FFFFFF"/>
<use xlink:href="#path5_fill" transform="translate(-1473.22 -138.691)" fill="#FFFFFF"/>
<use xlink:href="#path6_fill" transform="translate(-1473.22 -138.691)" fill="#FFFFFF"/>
<use xlink:href="#path7_fill" transform="translate(-1473.22 -138.691)" fill="#FFFFFF"/>
<use xlink:href="#path8_fill" transform="translate(-1473.22 -138.691)" fill="#FFFFFF"/>
<use xlink:href="#path9_fill" transform="translate(-1473.22 -138.691)" fill="#FFFFFF"/>
<use xlink:href="#path10_fill" transform="translate(-1473.22 -138.691)" fill="#FFFFFF"/>
<use xlink:href="#path11_fill" transform="translate(-1473.22 -138.691)" fill="#FFFFFF"/>
<use xlink:href="#path12_fill" transform="translate(-1473.22 -138.691)" fill="#FFFFFF"/>
<use xlink:href="#path13_fill" transform="translate(-1473.22 -138.691)" fill="#FFFFFF"/>
<use xlink:href="#path14_fill" transform="translate(-1473.22 -138.691)" fill="#FFFFFF"/>
<use xlink:href="#path15_fill" transform="translate(-1473.22 -138.691)" fill="#FFFFFF"/>
<use xlink:href="#path16_fill" transform="translate(-1473.22 -138.691)" fill="#FFFFFF"/>
<use xlink:href="#path17_fill" transform="translate(-1473.22 -138.691)" fill="#FFFFFF"/>
<use xlink:href="#path18_fill" transform="translate(-1473.22 -138.691)" fill="#FFFFFF"/>
<use xlink:href="#path19_fill" transform="translate(-1473.22 -138.691)" fill="#FFFFFF"/>
<use xlink:href="#path20_fill" transform="translate(-1473.22 -138.691)" fill="#FFFFFF"/>
<use xlink:href="#path21_fill" transform="translate(-1473.22 -138.691)" fill="#FFFFFF"/>
<use xlink:href="#path22_fill" transform="translate(-1473.22 -138.691)" fill="#FFFFFF"/>
<use xlink:href="#path23_fill" transform="translate(-1473.22 -138.691)" fill="#FFFFFF"/>
<use xlink:href="#path24_fill" transform="translate(-1473.22 -138.691)" fill="#FFFFFF"/>
<use xlink:href="#path25_fill" transform="translate(-1473.22 -138.691)" fill="#FFFFFF"/>
<use xlink:href="#path26_fill" transform="translate(-1473.22 -138.691)" fill="#FFFFFF"/>
<use xlink:href="#path27_fill" transform="translate(-1473.22 -138.691)" fill="#FFFFFF"/>
<use xlink:href="#path28_fill" transform="translate(-1473.22 -138.691)" fill="#FFFFFF"/>
<use xlink:href="#path29_fill" transform="translate(-1473.22 -138.691)" fill="#FFFFFF"/>
</g>
</g>
</g>
<defs>
<path id="path0_fill" d="M 1170 0L 0 0L 0 400L 1170 400L 1170 0Z"/>
<path id="path1_fill" d="M 2.174 179.752C 4.402 181.555 6.682 182.828 9.758 182.828C 13.153 182.828 14.85 181.024 14.85 178.797C 14.85 176.145 11.774 174.979 8.963 173.917C 5.303 172.591 1.272 170.841 1.272 166.492C 1.272 162.354 4.561 159.172 10.13 159.172C 13.365 159.172 16.176 160.498 18.139 162.09L 16.071 164.848C 14.321 163.522 12.464 162.567 10.184 162.567C 6.948 162.567 5.463 164.318 5.463 166.28C 5.463 168.72 8.274 169.622 11.191 170.735C 14.904 172.115 19.041 173.653 19.041 178.532C 19.041 182.722 15.699 186.223 9.6 186.223C 5.94 186.223 2.439 184.685 0 182.669L 2.174 179.752Z"/>
<path id="path2_fill" d="M 32.62 159.809L 32.991 163.522L 33.15 163.522C 35.378 161.083 38.083 159.172 41.159 159.172C 45.084 159.172 47.206 161.028 48.266 164.105C 50.971 161.188 53.623 159.172 56.752 159.172C 62.056 159.172 64.602 162.673 64.602 169.25L 64.602 185.586L 60.252 185.586L 60.252 169.833C 60.252 165.007 58.714 162.938 55.479 162.938C 53.463 162.938 51.395 164.263 49.008 166.916L 49.008 185.586L 44.659 185.586L 44.659 169.833C 44.659 165.007 43.121 162.938 39.832 162.938C 37.922 162.938 35.748 164.263 33.361 166.916L 33.361 185.586L 29.011 185.586L 29.011 159.809L 32.62 159.809Z"/>
<path id="path3_fill" d="M 91.4959 169.25C 91.4959 165.961 90.3819 162.779 86.1919 162.779C 83.1689 162.779 80.5169 164.158 78.5009 165.537L 76.7509 162.514C 79.1379 160.976 82.7449 159.172 86.8819 159.172C 93.1939 159.172 95.8449 163.362 95.8449 169.78L 95.8449 185.586L 92.2389 185.586L 91.868 182.51L 91.7619 182.51C 89.2689 184.526 86.4049 186.223 83.2229 186.223C 78.8729 186.223 75.6379 183.518 75.6379 178.904C 75.6369 173.282 80.5169 170.47 91.4959 169.25ZM 84.4409 182.722C 86.9339 182.722 89.0029 181.502 91.4949 179.275L 91.4949 172.115C 82.8489 173.176 79.9329 175.297 79.9329 178.586C 79.9329 181.502 81.8949 182.722 84.4409 182.722Z"/>
<path id="path4_fill" d="M 105.446 159.809L 109.053 159.809L 109.424 164.477L 109.583 164.477C 111.333 161.242 113.985 159.172 116.902 159.172C 118.016 159.172 118.812 159.331 119.66 159.703L 118.811 163.521C 117.962 163.255 117.379 163.097 116.318 163.097C 114.144 163.097 111.545 164.688 109.794 169.036L 109.794 185.585L 105.445 185.585L 105.446 159.809Z"/>
<path id="path5_fill" d="M 128.732 163.363L 124.913 163.363L 124.913 160.075L 128.944 159.809L 129.475 152.596L 133.135 152.596L 133.135 159.809L 140.083 159.809L 140.083 163.363L 133.135 163.363L 133.135 177.683C 133.135 180.866 134.143 182.669 137.113 182.669C 138.014 182.669 139.181 182.298 140.03 181.98L 140.879 185.268C 139.447 185.746 137.697 186.223 136.106 186.223C 130.59 186.223 128.733 182.722 128.733 177.63L 128.732 163.363Z"/>
<path id="path6_fill" d="M 178.483 159.172C 181.878 159.172 184.264 160.605 186.015 162.248L 183.84 165.06C 182.302 163.734 180.711 162.78 178.642 162.78C 173.975 162.78 170.58 166.81 170.58 172.751C 170.58 178.639 173.815 182.616 178.536 182.616C 180.975 182.616 183.044 181.396 184.582 180.017L 186.544 182.881C 184.21 184.949 181.24 186.223 178.164 186.223C 171.322 186.223 166.071 181.29 166.071 172.75C 166.072 164.105 171.853 159.172 178.483 159.172Z"/>
<path id="path7_fill" d="M 205.376 159.172C 211.688 159.172 217.31 164.105 217.31 172.75C 217.31 181.29 211.688 186.223 205.376 186.223C 199.064 186.223 193.442 181.29 193.442 172.75C 193.442 164.105 199.064 159.172 205.376 159.172ZM 205.376 182.616C 209.832 182.616 212.802 178.638 212.802 172.751C 212.802 166.811 209.832 162.78 205.376 162.78C 200.974 162.78 197.951 166.81 197.951 172.751C 197.951 178.638 200.974 182.616 205.376 182.616Z"/>
<path id="path8_fill" d="M 228.025 147.823L 232.374 147.823L 232.374 180.707C 232.374 182.086 232.957 182.616 233.594 182.616C 233.859 182.616 234.071 182.616 234.549 182.511L 235.132 185.799C 234.549 186.065 233.806 186.224 232.639 186.224C 229.351 186.224 228.025 184.156 228.025 180.389L 228.025 147.823Z"/>
<path id="path9_fill" d="M 245.476 147.823L 249.826 147.823L 249.826 180.707C 249.826 182.086 250.409 182.616 251.046 182.616C 251.311 182.616 251.524 182.616 252.001 182.511L 252.584 185.799C 252.001 186.065 251.258 186.224 250.091 186.224C 246.802 186.224 245.476 184.156 245.476 180.389L 245.476 147.823Z"/>
<path id="path10_fill" d="M 277.512 169.25C 277.512 165.961 276.398 162.779 272.208 162.779C 269.185 162.779 266.532 164.158 264.517 165.537L 262.767 162.514C 265.154 160.976 268.76 159.172 272.898 159.172C 279.21 159.172 281.861 163.362 281.861 169.78L 281.861 185.586L 278.255 185.586L 277.884 182.51L 277.778 182.51C 275.286 184.526 272.422 186.223 269.239 186.223C 264.889 186.223 261.654 183.518 261.654 178.904C 261.653 173.282 266.533 170.47 277.512 169.25ZM 270.457 182.722C 272.95 182.722 275.019 181.502 277.512 179.275L 277.512 172.115C 268.866 173.176 265.95 175.297 265.95 178.586C 265.95 181.502 267.912 182.722 270.457 182.722Z"/>
<path id="path11_fill" d="M 294.008 147.823L 298.358 147.823L 298.358 158.112L 298.252 162.78C 300.586 160.711 303.45 159.173 306.314 159.173C 312.997 159.173 316.55 164.319 316.55 172.275C 316.55 181.079 311.299 186.224 305.412 186.224C 303.024 186.224 300.32 185.057 298.039 183.041L 297.88 183.041L 297.509 185.587L 294.008 185.587L 294.008 147.823ZM 304.669 182.563C 308.912 182.563 312.042 178.691 312.042 172.327C 312.042 166.651 310.132 162.833 305.253 162.833C 303.078 162.833 300.797 164.053 298.357 166.334L 298.357 179.858C 300.638 181.821 302.972 182.563 304.669 182.563Z"/>
<path id="path12_fill" d="M 337.396 159.172C 343.708 159.172 349.331 164.105 349.331 172.75C 349.331 181.29 343.709 186.223 337.396 186.223C 331.084 186.223 325.462 181.29 325.462 172.75C 325.462 164.105 331.084 159.172 337.396 159.172ZM 337.396 182.616C 341.852 182.616 344.822 178.638 344.822 172.751C 344.822 166.811 341.852 162.78 337.396 162.78C 332.994 162.78 329.971 166.81 329.971 172.751C 329.971 178.638 332.994 182.616 337.396 182.616Z"/>
<path id="path13_fill" d="M 361.53 159.809L 361.901 164.477L 362.06 164.477C 363.81 161.242 366.462 159.172 369.379 159.172C 370.493 159.172 371.288 159.331 372.137 159.703L 371.288 163.521C 370.439 163.255 369.856 163.097 368.796 163.097C 366.621 163.097 364.023 164.688 362.272 169.036L 362.272 185.585L 357.923 185.585L 357.923 159.809L 361.53 159.809Z"/>
<path id="path14_fill" d="M 393.516 169.25C 393.516 165.961 392.402 162.779 388.211 162.779C 385.188 162.779 382.536 164.158 380.521 165.537L 378.771 162.514C 381.158 160.976 384.764 159.172 388.901 159.172C 395.213 159.172 397.865 163.362 397.865 169.78L 397.865 185.586L 394.259 185.586L 393.888 182.51L 393.782 182.51C 391.289 184.526 388.426 186.223 385.243 186.223C 380.893 186.223 377.658 183.518 377.658 178.904C 377.657 173.282 382.537 170.47 393.516 169.25ZM 386.461 182.722C 388.954 182.722 391.023 181.502 393.516 179.275L 393.516 172.115C 384.87 173.176 381.953 175.297 381.953 178.586C 381.953 181.502 383.915 182.722 386.461 182.722Z"/>
<path id="path15_fill" d="M 405.134 163.363L 405.134 160.075L 409.164 159.809L 409.694 152.596L 413.354 152.596L 413.354 159.809L 420.302 159.809L 420.302 163.363L 413.354 163.363L 413.354 177.683C 413.354 180.866 414.362 182.669 417.332 182.669C 418.234 182.669 419.401 182.298 420.25 181.98L 421.099 185.268C 419.666 185.746 417.916 186.223 416.325 186.223C 410.809 186.223 408.953 182.722 408.953 177.63L 408.953 163.363L 405.134 163.363Z"/>
<path id="path16_fill" d="M 429.267 151.694C 429.267 149.997 430.593 148.883 432.29 148.883C 433.987 148.883 435.312 149.996 435.312 151.694C 435.312 153.339 433.987 154.506 432.29 154.506C 430.593 154.506 429.267 153.338 429.267 151.694ZM 430.062 159.809L 434.412 159.809L 434.412 185.586L 430.062 185.586L 430.062 159.809Z"/>
<path id="path17_fill" d="M 457.06 159.172C 463.372 159.172 468.994 164.105 468.994 172.75C 468.994 181.29 463.372 186.223 457.06 186.223C 450.748 186.223 445.125 181.29 445.125 172.75C 445.125 164.105 450.748 159.172 457.06 159.172ZM 457.06 182.616C 461.515 182.616 464.485 178.638 464.485 172.751C 464.485 166.811 461.515 162.78 457.06 162.78C 452.658 162.78 449.634 166.81 449.634 172.751C 449.634 178.638 452.658 182.616 457.06 182.616Z"/>
<path id="path18_fill" d="M 483.315 159.809L 483.686 163.522L 483.845 163.522C 486.284 161.083 488.937 159.172 492.491 159.172C 497.901 159.172 500.341 162.673 500.341 169.25L 500.341 185.586L 495.991 185.586L 495.991 169.833C 495.991 165.007 494.507 162.938 491.112 162.938C 488.46 162.938 486.656 164.317 484.057 166.916L 484.057 185.586L 479.708 185.586L 479.708 159.809L 483.315 159.809Z"/>
<path id="path19_fill" d="M 327.397 36.037C 331.907 36.037 335.7 36.601 338.782 37.728C 341.862 38.855 344.323 40.433 346.165 42.46C 348.005 44.489 349.321 46.952 350.11 49.843C 350.897 52.738 351.292 55.911 351.292 59.368L 351.292 95.097C 349.188 95.548 346.013 96.093 341.769 96.732C 337.523 97.369 332.734 97.689 327.398 97.689C 323.867 97.689 320.636 97.351 317.707 96.675C 314.775 95.999 312.277 94.909 310.211 93.405C 308.143 91.903 306.529 89.95 305.365 87.544C 304.199 85.142 303.617 82.173 303.617 78.642C 303.617 75.259 304.273 72.406 305.59 70.076C 306.904 67.748 308.69 65.849 310.944 64.385C 313.198 62.918 315.809 61.867 318.778 61.229C 321.745 60.59 324.844 60.27 328.077 60.27C 329.579 60.27 331.157 60.366 332.809 60.551C 334.461 60.74 336.229 61.059 338.108 61.51L 338.108 59.256C 338.108 57.678 337.919 56.176 337.544 54.748C 337.167 53.32 336.511 52.06 335.571 50.971C 334.632 49.883 333.391 49.037 331.852 48.436C 330.311 47.834 328.375 47.534 326.047 47.534C 322.891 47.534 319.998 47.761 317.367 48.21C 314.736 48.661 312.596 49.189 310.943 49.788L 309.252 38.743C 310.981 38.143 313.498 37.542 316.805 36.94C 320.108 36.337 323.639 36.037 327.397 36.037ZM 328.524 86.869C 332.733 86.869 335.924 86.644 338.106 86.193L 338.106 71.089C 337.354 70.864 336.262 70.638 334.836 70.413C 333.408 70.186 331.83 70.075 330.102 70.075C 328.598 70.075 327.077 70.186 325.538 70.413C 323.997 70.638 322.608 71.052 321.368 71.653C 320.128 72.254 319.132 73.1 318.382 74.188C 317.63 75.278 317.255 76.651 317.255 78.301C 317.255 81.533 318.269 83.768 320.298 85.008C 322.327 86.248 325.067 86.869 328.524 86.869Z"/>
<path id="path20_fill" d="M 383.19 20.257C 383.19 22.812 382.362 24.841 380.71 26.343C 379.058 27.847 377.105 28.597 374.849 28.597C 372.519 28.597 370.529 27.847 368.876 26.343C 367.222 24.841 366.396 22.812 366.396 20.257C 366.396 17.628 367.222 15.562 368.876 14.058C 370.528 12.556 372.519 11.804 374.849 11.804C 377.105 11.804 379.058 12.556 380.71 14.058C 382.362 15.562 383.19 17.628 383.19 20.257ZM 381.725 96.449L 368.086 96.449L 368.086 37.501L 381.725 37.501L 381.725 96.449Z"/>
<path id="path21_fill" d="M 414.27 96.449C 410.497 88.711 406.629 79.824 402.668 69.793C 398.707 59.764 395.106 48.998 391.861 37.502L 406.406 37.502C 407.234 40.811 408.197 44.359 409.291 48.154C 410.385 51.949 411.553 55.744 412.799 59.537C 414.043 63.332 415.326 67.016 416.647 70.582C 417.967 74.152 419.194 77.365 420.327 80.219C 421.458 77.365 422.665 74.153 423.948 70.582C 425.229 67.016 426.493 63.332 427.739 59.537C 428.981 55.744 430.171 51.949 431.303 48.154C 432.434 44.359 433.414 40.81 434.246 37.502L 448.338 37.502C 445.094 48.998 441.49 59.764 437.529 69.793C 433.566 79.824 429.701 88.711 425.929 96.449L 414.27 96.449Z"/>
<path id="path22_fill" d="M 453.743 67.257C 453.743 62.073 454.513 57.527 456.054 53.618C 457.593 49.712 459.642 46.462 462.197 43.87C 464.752 41.276 467.681 39.323 470.99 38.009C 474.295 36.695 477.676 36.036 481.133 36.036C 489.248 36.036 495.578 38.554 500.125 43.587C 504.67 48.622 506.943 56.138 506.943 66.13C 506.943 66.882 506.923 67.728 506.886 68.665C 506.849 69.606 506.792 70.452 506.718 71.202L 467.833 71.202C 468.208 75.936 469.878 79.598 472.849 82.19C 475.816 84.784 480.119 86.079 485.753 86.079C 489.06 86.079 492.083 85.78 494.827 85.179C 497.569 84.577 499.729 83.939 501.307 83.263L 503.11 94.421C 502.358 94.798 501.325 95.192 500.01 95.605C 498.695 96.018 497.194 96.394 495.502 96.732C 493.81 97.07 491.988 97.351 490.035 97.576C 488.08 97.803 486.09 97.916 484.062 97.916C 478.876 97.916 474.369 97.145 470.537 95.605C 466.705 94.064 463.549 91.923 461.068 89.179C 458.589 86.437 456.746 83.206 455.547 79.486C 454.344 75.767 453.743 71.693 453.743 67.257ZM 493.305 61.171C 493.305 59.294 493.039 57.507 492.516 55.817C 491.989 54.126 491.219 52.661 490.205 51.421C 489.189 50.181 487.951 49.206 486.484 48.491C 485.019 47.778 483.273 47.421 481.244 47.421C 479.139 47.421 477.299 47.814 475.721 48.603C 474.143 49.392 472.809 50.427 471.721 51.703C 470.629 52.982 469.785 54.447 469.184 56.099C 468.582 57.753 468.17 59.443 467.944 61.171L 493.305 61.171Z"/>
<path id="path23_fill" d="M 240.049 109.779C 233.563 103.459 227.996 97.418 222.617 90.853C 225.179 87.996 227.179 84.572 228.596 80.564C 230.045 76.457 230.772 71.908 230.772 66.912C 230.772 61.918 230.024 57.387 228.536 53.318C 227.046 49.252 224.972 45.767 222.313 42.867C 219.653 39.967 216.452 37.732 212.708 36.162C 208.962 34.592 204.872 33.807 200.444 33.807C 196.014 33.807 191.944 34.592 188.239 36.162C 184.534 37.732 181.333 39.967 178.635 42.867C 175.934 45.767 173.84 49.252 172.352 53.318C 170.86 57.386 170.116 61.918 170.116 66.912C 170.116 71.908 170.86 76.457 172.352 80.564C 173.84 84.673 175.914 88.177 178.575 91.076C 181.231 93.976 184.415 96.232 188.12 97.844C 191.823 99.453 195.932 100.26 200.444 100.26C 204.708 100.26 208.626 99.53 212.208 98.09C 216.573 105.205 221.515 112.055 226.997 118.535C 232.395 115.296 235.118 113.472 240.049 109.779ZM 189.145 82.015C 186.448 78.31 185.098 73.275 185.098 66.911C 185.098 60.628 186.448 55.655 189.145 51.989C 191.844 48.325 195.612 46.491 200.444 46.491C 205.276 46.491 209.042 48.325 211.741 51.989C 214.438 55.655 215.79 60.628 215.79 66.911C 215.79 73.274 214.438 78.309 211.741 82.015C 209.042 85.72 205.276 87.572 200.444 87.572C 195.612 87.572 191.844 85.72 189.145 82.015Z"/>
<path id="path24_fill" d="M 290.43 94.646C 287.799 95.322 284.381 96.017 280.172 96.732C 275.961 97.445 271.34 97.802 266.307 97.802C 261.575 97.802 257.61 97.126 254.418 95.773C 251.225 94.421 248.67 92.543 246.754 90.138C 244.838 87.733 243.467 84.859 242.641 81.515C 241.813 78.173 241.401 74.509 241.401 70.527L 241.401 37.501L 255.04 37.501L 255.04 68.384C 255.04 74.696 255.958 79.204 257.798 81.909C 259.64 84.614 262.851 85.968 267.435 85.968C 269.087 85.968 270.835 85.894 272.677 85.741C 274.517 85.591 275.89 85.403 276.79 85.179L 276.79 37.501L 290.431 37.501L 290.431 94.646L 290.43 94.646Z"/>
<path id="path25_fill" d="M 98.207 123.72C 95.461 111.113 84.238 101.671 70.805 101.671C 57.373 101.671 46.151 111.112 43.403 123.72C 51.735 127.566 61.007 129.712 70.809 129.714C 80.606 129.712 89.877 127.566 98.207 123.72Z"/>
<path id="path26_fill" d="M 136.284 64.23C 136.282 61.63 136.126 59.07 135.833 56.55C 122.999 55.273 110.558 63.029 106.407 75.804C 102.261 88.57 107.762 102.154 118.889 108.667C 129.694 96.972 136.278 81.406 136.284 64.23Z"/>
<path id="path27_fill" d="M 92.813 33.945C 103.676 41.838 118.299 40.797 127.932 32.215C 124.983 26.969 121.334 22.164 117.104 17.926C 108.102 8.94 96.549 2.563 83.602 0C 78.416 11.814 81.948 26.048 92.813 33.945Z"/>
<path id="path28_fill" d="M 13.676 32.216C 23.311 40.796 37.938 41.835 48.805 33.939C 59.67 26.046 63.2 11.814 58.014 0.00100653C 45.059 2.56201 33.508 8.93301 24.506 17.925C 20.274 22.164 16.625 26.968 13.676 32.216Z"/>
<path id="path29_fill" d="M 35.2 75.798C 31.052 63.027 18.61 55.273 5.774 56.55C 5.479 59.068 5.323 61.63 5.323 64.23C 5.329 81.406 11.909 96.972 22.718 108.668C 33.846 102.154 39.35 88.568 35.2 75.798Z"/>
</defs>
</svg>
